<?xml version="1.0" standalone="no"?><!DOCTYPE svg PUBLIC "-//W3C//DTD SVG 1.1//EN" "http://www.w3.org/Graphics/SVG/1.1/DTD/svg11.dtd"><svg class="icon" width="32px" height="32.00px" viewBox="0 0 1024 1024" version="1.1" xmlns="http://www.w3.org/2000/svg"><path d="M415.9488 550.912H188.2112C156.8768 550.912 131.072 576.3072 131.072 608.0512v227.7376c0 31.3344 25.3952 57.1392 57.1392 57.1392h227.7376c31.3344 0 57.1392-25.3952 57.1392-57.1392V608.0512c0-31.3344-25.8048-57.1392-57.1392-57.1392zM833.7408 133.12H606.0032C574.6688 133.12 548.864 158.3104 548.864 190.2592v227.7376c0 31.3344 25.3952 57.1392 57.1392 57.1392h227.7376c31.3344 0 57.1392-25.3952 57.1392-57.1392V190.2592c0.2048-31.9488-25.1904-57.1392-57.1392-57.1392zM415.9488 133.12H188.2112C156.8768 133.12 131.072 158.3104 131.072 190.2592v227.7376c0 31.3344 25.3952 57.1392 57.1392 57.1392h227.7376c31.3344 0 57.1392-25.3952 57.1392-57.1392V190.2592c0-31.9488-25.8048-57.1392-57.1392-57.1392zM833.7408 550.912H606.0032c-31.3344 0-57.1392 25.3952-57.1392 57.1392v227.7376c0 31.3344 25.3952 57.1392 57.1392 57.1392h227.7376c31.3344 0 57.1392-25.3952 57.1392-57.1392V608.0512c0.2048-31.3344-25.1904-57.1392-57.1392-57.1392z"  /></svg>