<?xml version="1.0" standalone="no"?><!DOCTYPE svg PUBLIC "-//W3C//DTD SVG 1.1//EN" "http://www.w3.org/Graphics/SVG/1.1/DTD/svg11.dtd"><svg t="1618934878979" class="icon" viewBox="0 0 1024 1024" version="1.1" xmlns="http://www.w3.org/2000/svg" p-id="2082" xmlns:xlink="http://www.w3.org/1999/xlink" width="32" height="32"><defs><style type="text/css"></style></defs><path d="M143.3 933.6c0-22.6 18.3-41 41-41h661.8c22.6 0 41 18.3 41 41 0 22.6-18.3 41-41 41H184.3c-22.6 0-41-18.4-41-41zM979.9 402.9c3.6-10.6 2.9-22.4-2.7-32.8-0.1-0.3-0.3-0.5-0.4-0.8v-0.1c-5.8-10.7-16.3-18.8-29.3-21-14.2-2.4-27.9 2.9-37 12.8L751.7 474.3 548.3 246.6c-1.4-1.5-2.8-2.9-4.3-4.2l-0.2-0.2c-16.9-15.1-42.8-13.6-57.8 3.3L280.8 475.3 119.9 360.6c-9.1-9.5-22.5-14.5-36.5-12.2-17.5 2.9-30.6 16.6-33.5 33.2-1.3 6.5-1 13.2 0.9 19.5l86.9 398.8c0.2 5.3 1.4 10.3 3.4 14.9 6.9 17.7 25.5 28.8 44.9 25.5 1.4-0.2 2.8-0.5 4.2-0.9h661.4c13.3 0 25.1-6.3 32.6-16.1 4.3-5.3 7.4-11.8 8.6-19.1l87.1-401.3z" p-id="2083"></path><path d="M515.2 21.5c-69.1 0-125 56-125 125s56 125 125 125 125-56 125-125-55.9-125-125-125z" p-id="2084"></path></svg>