<?xml version="1.0" standalone="no"?><!DOCTYPE svg PUBLIC "-//W3C//DTD SVG 1.1//EN" "http://www.w3.org/Graphics/SVG/1.1/DTD/svg11.dtd"><svg t="1619532768811" class="icon" viewBox="0 0 1024 1024" version="1.1" xmlns="http://www.w3.org/2000/svg" p-id="2967" xmlns:xlink="http://www.w3.org/1999/xlink" width="32" height="32"><defs><style type="text/css"></style></defs><path d="M558.586719 0m0 47.878807l0 414.949658q0 47.878807-47.878807 47.878807l0 0q-47.878807 0-47.878807-47.878807l0-414.949658q0-47.878807 47.878807-47.878807l0 0q47.878807 0 47.878807 47.878807Z" p-id="2968"></path><path d="M175.556265 143.63642a47.878807 47.878807 0 0 1 34.472741 81.07478 414.949659 414.949659 0 1 0 601.357813 0 47.878807 47.878807 0 0 1 68.945481-63.838409 510.707272 510.707272 0 1 1-739.248776 0 47.240423 47.240423 0 0 1 34.472741-17.236371z" p-id="2969"></path></svg>