<?xml version="1.0" standalone="no"?><!DOCTYPE svg PUBLIC "-//W3C//DTD SVG 1.1//EN" "http://www.w3.org/Graphics/SVG/1.1/DTD/svg11.dtd"><svg t="1614925158359" class="icon" viewBox="0 0 1024 1024" version="1.1" xmlns="http://www.w3.org/2000/svg" p-id="4688" xmlns:xlink="http://www.w3.org/1999/xlink" width="32" height="32"><defs><style type="text/css"></style></defs><path d="M518.252 103c127.822 0 231.653 102.811 233.717 230.385l0.031 3.873V423h77c35.346 0 64 28.654 64 64v370c0 35.346-28.654 64-64 64H196c-35.346 0-64-28.654-64-64V487c0-35.346 28.654-64 64-64h77v-85.742c0-128.065 102.552-232.158 229.882-234.227l3.866-0.031h11.504zM829 487H196v370h633V487zM513 599c17.673 0 32 14.327 32 32v82c0 17.673-14.327 32-32 32-17.673 0-32-14.327-32-32v-82c0-17.673 14.327-32 32-32z m5.252-432h-11.504c-92.794 0-168.226 74.693-169.725 167.442l-0.023 2.816V423h351v-85.742c0-93.108-74.504-168.732-166.942-170.235l-2.806-0.023z" p-id="4689"></path></svg>