<?xml version="1.0" standalone="no"?><!DOCTYPE svg PUBLIC "-//W3C//DTD SVG 1.1//EN" "http://www.w3.org/Graphics/SVG/1.1/DTD/svg11.dtd"><svg class="icon" width="32px" height="32.00px" viewBox="0 0 1024 1024" version="1.1" xmlns="http://www.w3.org/2000/svg"><path d="M876.31644445 230.51377778H148.25244445c-40.04977778 0-72.81777778-32.768-72.81777778-72.81777778s32.768-72.81777778 72.81777778-72.81777778h727.95022222c40.04977778 0 72.81777778 32.768 72.81777778 72.81777778 0.11377778 40.04977778-32.65422222 72.81777778-72.704 72.81777778zM876.31644445 586.97955555H152.576c-40.04977778 0-72.81777778-32.768-72.81777778-72.81777777s32.768-72.81777778 72.81777778-72.81777778h723.74044445c40.04977778 0 72.81777778 32.768 72.81777777 72.81777778s-32.768 72.81777778-72.81777777 72.81777777zM876.31644445 949.93066667H148.25244445c-40.04977778 0-72.81777778-32.768-72.81777778-72.81777778s32.768-72.81777778 72.81777778-72.81777778h727.95022222c40.04977778 0 72.81777778 32.768 72.81777778 72.81777778 0.11377778 40.04977778-32.65422222 72.81777778-72.704 72.81777778z"  /></svg>